<svg width="120" height="200" viewBox="0 0 120 200" xmlns="http://www.w3.org/2000/svg">

  <!-- Black rectangular frame -->
  <rect x="8" y="5" width="100" height="190" fill="none" stroke="black" stroke-width="3"/>

  <!-- Main vertical line - split around the coils -->
  <line x1="20" y1="10" x2="20" y2="40" stroke="black" stroke-width="2"/>
  <line x1="20" y1="104" x2="20" y2="160" stroke="black" stroke-width="2"/>
  <line x1="20" y1="160" x2="20" y2="190" stroke="black" stroke-width="2"/>
  
  <!-- Coil/inductor symbols (semicircles) -->
  <path d="M 20 40 A 8 8 0 0 1 20 56" stroke="black" stroke-width="2" fill="none"/>
  <path d="M 20 56 A 8 8 0 0 1 20 72" stroke="black" stroke-width="2" fill="none"/>
  <path d="M 20 72 A 8 8 0 0 1 20 88" stroke="black" stroke-width="2" fill="none"/>
  <path d="M 20 88 A 8 8 0 0 1 20 104" stroke="black" stroke-width="2" fill="none"/>
  
  <!-- Horizontal line extending right -->
  <line x1="20" y1="160" x2="100" y2="160" stroke="black" stroke-width="2"/>
  
  <!-- Capacitor symbol (two parallel lines) -->
  <line x1="70" y1="150" x2="70" y2="170" stroke="black" stroke-width="2"/>
  <line x1="75" y1="150" x2="75" y2="170" stroke="black" stroke-width="2"/>
  
  <!-- Small dot/junction at the connection point -->
  <circle cx="20" cy="160" r="2" fill="black"/>
</svg>